<svg width="146" height="20" viewBox="0 0 146 20" fill="none" xmlns="http://www.w3.org/2000/svg">
<path d="M9.32582 0.808657L12.6278 0.818868L14.6889 6.93527L16.7878 0.831732L20.1158 0.842024L16.9438 9.23025L19.2656 15.1395L24.5359 0.803692L28.4359 0.815752L20.8648 19.2524L17.8489 19.2431L14.6748 11.4852L11.4529 19.2233L8.4369 19.214L1.03202 0.731008L4.88 0.742907L10.0876 15.1111L12.3938 9.21618L9.32582 0.808657ZM35.3533 19.5572C34.2613 19.5539 33.2739 19.3688 32.391 19.0021C31.5082 18.618 30.7558 18.1043 30.1337 17.4611C29.5117 16.8178 29.0287 16.071 28.6847 15.2206C28.358 14.3702 28.196 13.4771 28.1989 12.5411C28.2019 11.5704 28.3694 10.6609 28.7014 9.81262C29.0334 8.94697 29.5124 8.19445 30.1384 7.55505C30.7644 6.89832 31.52 6.38065 32.4052 6.00205C33.3077 5.62351 34.3136 5.43595 35.4229 5.43938C36.5323 5.44281 37.5197 5.63653 38.3852 6.02054C39.268 6.40461 40.0117 6.91825 40.6164 7.56145C41.2384 8.20471 41.7041 8.95149 42.0135 9.80178C42.3402 10.6521 42.5021 11.5366 42.4993 12.4553C42.4986 12.6806 42.4892 12.8973 42.4713 13.1052C42.4706 13.3132 42.4528 13.4865 42.4177 13.6251L31.8877 13.5925C31.938 14.13 32.0666 14.607 32.2733 15.0237C32.48 15.4403 32.7476 15.7965 33.076 16.0922C33.4044 16.3879 33.7764 16.6143 34.1919 16.7716C34.6074 16.9289 35.0405 17.0083 35.4912 17.0096C36.1845 17.0118 36.835 16.8491 37.4427 16.5217C38.0677 16.1769 38.4938 15.7276 38.7209 15.1736L41.7083 16.0149C41.2024 17.0533 40.3937 17.9088 39.2823 18.5814C38.1883 19.2367 36.8786 19.562 35.3533 19.5572ZM38.9147 11.3522C38.8312 10.3293 38.4524 9.51344 37.7782 8.90468C37.1215 8.27865 36.3165 7.96416 35.3631 7.96121C34.8951 7.95976 34.4529 8.04506 34.0363 8.21711C33.6372 8.37187 33.2812 8.59611 32.9683 8.88981C32.6553 9.18351 32.3943 9.53804 32.185 9.95339C31.993 10.3688 31.8789 10.8278 31.8427 11.3303L38.9147 11.3522ZM53.1277 19.6122C52.0877 19.609 51.1611 19.3721 50.3478 18.9016C49.5346 18.4311 48.8953 17.7878 48.4298 16.9717L48.4225 19.3376L45.3805 19.3282L45.4392 0.348331L48.9232 0.359105L48.8992 8.10707C49.3871 7.27657 50.0218 6.6372 50.8031 6.18895C51.6019 5.72341 52.53 5.49228 53.5873 5.49555C54.4713 5.49829 55.2767 5.69144 56.0035 6.07503C56.7303 6.45861 57.3528 6.97187 57.8708 7.61481C58.4061 8.2578 58.8111 9.01306 59.0858 9.88058C59.3778 10.7482 59.5223 11.6586 59.5193 12.6119C59.5163 13.5999 59.3488 14.5181 59.0168 15.3664C58.7022 16.2148 58.2579 16.9587 57.6839 17.5983C57.11 18.2205 56.4324 18.7124 55.6513 19.074C54.8702 19.4356 54.029 19.615 53.1277 19.6122ZM52.1748 16.6452C52.7295 16.647 53.2411 16.5445 53.7098 16.338C54.1785 16.1141 54.578 15.8207 54.9085 15.4577C55.239 15.0947 55.4916 14.6708 55.6664 14.186C55.8586 13.7013 55.9556 13.1816 55.9573 12.6269C55.959 12.0723 55.8739 11.5433 55.7022 11.0401C55.5304 10.5369 55.2804 10.0941 54.9523 9.71179C54.6415 9.3295 54.2697 9.02501 53.8371 8.79834C53.4045 8.57167 52.9281 8.45753 52.4081 8.45592C51.6282 8.45351 50.9254 8.71134 50.2997 9.2294C49.6915 9.73019 49.2216 10.3527 48.89 11.0971L48.8799 14.347C49.0002 14.6941 49.1725 15.0066 49.397 15.2846C49.6388 15.5627 49.9067 15.8062 50.2008 16.0151C50.4948 16.2067 50.815 16.3637 51.1613 16.4861C51.5077 16.5912 51.8455 16.6442 52.1748 16.6452Z" fill="#2196F3"/>
<path d="M74.017 5.79273C73.896 5.67102 73.6712 5.50566 73.3425 5.29664C73.0312 5.08768 72.6418 4.88714 72.1744 4.69503C71.7244 4.48564 71.2309 4.31078 70.694 4.17045C70.1571 4.03012 69.6113 3.9591 69.0567 3.95738C68.0687 3.95433 67.3314 4.13405 66.845 4.49655C66.3585 4.85904 66.1143 5.36962 66.1122 6.02829C66.1111 6.40962 66.1967 6.73055 66.3693 6.99109C66.5592 7.23434 66.8272 7.45184 67.1732 7.64358C67.5193 7.83531 67.9521 8.00999 68.4716 8.16759C69.0085 8.32526 69.6233 8.49182 70.3161 8.6673C71.2167 8.91275 72.0305 9.17527 72.7577 9.45485C73.5021 9.73449 74.1251 10.0831 74.6264 10.5006C75.1452 10.9182 75.5423 11.4221 75.8178 12.0123C76.0933 12.5852 76.2298 13.2963 76.2272 14.1456C76.2241 15.1336 76.0308 15.9823 75.6473 16.6918C75.2812 17.384 74.7768 17.9458 74.1341 18.3772C73.5087 18.8086 72.7798 19.127 71.9471 19.3324C71.1319 19.5205 70.2736 19.6132 69.3722 19.6104C67.9856 19.6061 66.6169 19.3939 65.2662 18.9737C63.9155 18.5536 62.704 17.9605 61.6317 17.1945L63.2272 14.1054C63.3828 14.2619 63.6594 14.4707 64.0573 14.732C64.4726 14.9759 64.9571 15.2288 65.511 15.4905C66.0649 15.7349 66.6796 15.9448 67.355 16.1202C68.0305 16.2956 68.7236 16.3844 69.4342 16.3866C71.4102 16.3927 72.4002 15.7631 72.4041 14.4978C72.4053 14.0991 72.2937 13.7608 72.0692 13.4827C71.8447 13.2047 71.5248 12.9611 71.1095 12.7518C70.6941 12.5425 70.192 12.3503 69.6032 12.1751C69.0144 12 68.3564 11.8073 67.629 11.597C66.7458 11.3516 65.9752 11.0892 65.3174 10.8099C64.677 10.5132 64.1407 10.1735 63.7086 9.79087C63.2765 9.39087 62.9486 8.93918 62.7248 8.43582C62.5184 7.91518 62.4163 7.29953 62.4185 6.58887C62.4214 5.65287 62.5973 4.82141 62.9462 4.09449C63.2951 3.36756 63.7737 2.76237 64.3818 2.27892C65.0073 1.79552 65.7278 1.43374 66.5432 1.1936C67.3587 0.936117 68.2344 0.808825 69.1704 0.811719C70.4704 0.815739 71.6657 1.02744 72.7564 1.44681C73.8472 1.84885 74.7991 2.32847 75.612 2.88565L74.017 5.79273ZM87.3779 18.7561C86.9093 18.9627 86.3367 19.1689 85.66 19.3748C84.9834 19.5807 84.2724 19.6825 83.5271 19.6802C83.0417 19.6787 82.5826 19.6166 82.1496 19.4939C81.734 19.3713 81.3619 19.1795 81.0334 18.9185C80.7223 18.6402 80.472 18.2928 80.2826 17.8762C80.0933 17.4422 79.9996 16.922 80.0015 16.3153L80.0257 8.48932L78.2317 8.48378L78.24 5.80579L80.0339 5.81134L80.0476 1.39136L83.5316 1.40213L83.5179 5.82211L86.3779 5.83096L86.3696 8.50894L83.5096 8.5001L83.4891 15.1561C83.4876 15.6414 83.6078 15.9884 83.8498 16.1972C84.1093 16.3887 84.421 16.485 84.785 16.4861C85.149 16.4872 85.5045 16.4276 85.8515 16.3074C86.1986 16.1871 86.4762 16.084 86.6845 15.998L87.3779 18.7561ZM94.1295 19.739C92.7255 19.7347 91.6609 19.2807 90.9357 18.3771C90.2104 17.4735 89.8506 16.1377 89.856 14.3698L89.8824 5.84179L93.3664 5.85257L93.3424 13.6265C93.3359 15.7239 94.0866 16.7748 95.5946 16.7795C96.2706 16.7816 96.9212 16.5843 97.5465 16.1875C98.1891 15.7735 98.711 15.1511 99.1122 14.3204L99.1384 5.87042L102.622 5.88119L102.593 15.5011C102.591 15.8651 102.651 16.1253 102.772 16.2817C102.91 16.4381 103.127 16.5255 103.421 16.5437L103.412 19.5077C103.065 19.576 102.771 19.6184 102.528 19.635C102.302 19.6516 102.094 19.6596 101.904 19.659C101.28 19.6571 100.769 19.5169 100.371 19.2383C99.9906 18.9424 99.7665 18.5431 99.6987 18.0402L99.6241 16.948C99.0146 17.8821 98.2324 18.5817 97.2776 19.0467C96.3228 19.5118 95.2734 19.7425 94.1295 19.739ZM112.464 19.7957C111.528 19.7928 110.662 19.6081 109.865 19.2417C109.069 18.8752 108.386 18.3704 107.816 17.7273C107.246 17.0842 106.798 16.3375 106.471 15.4871C106.162 14.6195 106.008 13.6917 106.012 12.7037C106.015 11.7157 106.165 10.7975 106.462 9.94908C106.777 9.10072 107.204 8.3567 107.743 7.71703C108.282 7.07737 108.925 6.57668 109.672 6.21499C110.418 5.8533 111.233 5.67382 112.117 5.67655C113.123 5.67966 114.023 5.92511 114.819 6.41291C115.632 6.90076 116.263 7.53538 116.711 8.31677L116.735 0.568807L120.219 0.579581L120.173 15.5555C120.172 15.9195 120.232 16.1797 120.352 16.3361C120.473 16.4924 120.681 16.5798 120.976 16.598L120.966 19.562C120.359 19.6814 119.865 19.7406 119.484 19.7394C118.86 19.7375 118.349 19.5799 117.951 19.2667C117.554 18.9534 117.33 18.5454 117.279 18.0426L117.204 17.1843C116.698 18.0494 116.012 18.706 115.144 19.154C114.293 19.5847 113.4 19.7986 112.464 19.7957ZM113.383 16.8345C113.712 16.8355 114.05 16.7846 114.397 16.6817C114.744 16.5614 115.065 16.3977 115.361 16.1906C115.656 15.9835 115.917 15.7417 116.143 15.465C116.387 15.1885 116.57 14.8857 116.692 14.5567L116.702 11.3068C116.564 10.925 116.366 10.5777 116.107 10.2649C115.865 9.93483 115.58 9.65661 115.252 9.43026C114.94 9.18663 114.603 8.99492 114.239 8.85513C113.893 8.71539 113.547 8.64499 113.2 8.64391C112.68 8.64231 112.194 8.75347 111.743 8.97741C111.309 9.2014 110.935 9.51225 110.622 9.90995C110.309 10.2903 110.065 10.7316 109.89 11.2337C109.715 11.7358 109.627 12.2555 109.625 12.7929C109.624 13.3649 109.717 13.8938 109.906 14.3798C110.096 14.8657 110.354 15.2911 110.682 15.6562C111.011 16.0212 111.4 16.3084 111.85 16.5178C112.317 16.7272 112.828 16.8328 113.383 16.8345ZM124.36 19.5725L124.402 5.94854L127.886 5.95932L127.844 19.5833L124.36 19.5725ZM124.408 4.05055L124.419 0.592569L127.903 0.603343L127.892 4.06133L124.408 4.05055ZM138.058 19.8748C136.949 19.8714 135.953 19.6777 135.07 19.2936C134.187 18.9095 133.435 18.3959 132.813 17.7526C132.208 17.0921 131.743 16.3366 131.416 15.4863C131.089 14.6359 130.927 13.7428 130.93 12.8068C130.933 11.8534 131.101 10.9526 131.432 10.1043C131.764 9.25599 132.235 8.51211 132.843 7.87266C133.469 7.21592 134.225 6.69826 135.11 6.31966C135.995 5.94106 136.993 5.75348 138.102 5.75691C139.211 5.76034 140.199 5.95406 141.064 6.33807C141.947 6.72214 142.691 7.24444 143.295 7.90498C143.917 8.54824 144.392 9.29504 144.718 10.1454C145.045 10.9957 145.207 11.8976 145.204 12.8509C145.201 13.7869 145.034 14.6791 144.702 15.5274C144.37 16.3757 143.899 17.1282 143.291 17.785C142.682 18.4245 141.935 18.9335 141.05 19.3121C140.165 19.6907 139.168 19.8783 138.058 19.8748ZM134.518 12.8179C134.516 13.4245 134.601 13.9795 134.773 14.4827C134.962 14.9686 135.212 15.394 135.523 15.759C135.851 16.124 136.232 16.4112 136.664 16.6205C137.097 16.8125 137.565 16.9093 138.067 16.9109C138.57 16.9124 139.038 16.8185 139.472 16.6292C139.906 16.4225 140.28 16.1377 140.593 15.7747C140.923 15.4117 141.176 14.9791 141.351 14.477C141.543 13.9749 141.64 13.4206 141.642 12.8139C141.644 12.2246 141.55 11.6783 141.361 11.175C141.189 10.6718 140.939 10.2377 140.611 9.87269C140.3 9.50772 139.929 9.22924 139.496 9.03723C139.063 8.82789 138.595 8.72245 138.093 8.72089C137.59 8.71934 137.122 8.82189 136.688 9.02855C136.254 9.23521 135.872 9.52003 135.541 9.88301C135.228 10.246 134.975 10.6786 134.783 11.1807C134.608 11.6828 134.52 12.2285 134.518 12.8179Z" fill="black"/>
</svg>
